<mxfile host="app.diagrams.net" modified="2020-12-30T14:24:38.194Z" agent="5.0 (Macintosh; Intel Mac OS X 10_15_4) AppleWebKit/537.36 (KHTML, like Gecko) Chrome/87.0.4280.88 Safari/537.36" etag="PPFw12Y2eqeceT83Yfhj" version="14.1.4" type="github">
  <diagram id="3BSnNq3NLg6sYRup1Nu3" name="Page-1">
    <mxGraphModel dx="904" dy="591" grid="1" gridSize="10" guides="1" tooltips="1" connect="1" arrows="1" fold="1" page="1" pageScale="1" pageWidth="827" pageHeight="1169" math="0" shadow="0">
      <root>
        <mxCell id="0" />
        <mxCell id="1" parent="0" />
        <mxCell id="8Eg1PZYVMVxL11ZSGQ0M-19" value="" style="ellipse;whiteSpace=wrap;html=1;aspect=fixed;strokeWidth=10;fillColor=none;strokeColor=#1A1A1A;" vertex="1" parent="1">
          <mxGeometry x="140" y="60" width="460" height="460" as="geometry" />
        </mxCell>
        <mxCell id="8Eg1PZYVMVxL11ZSGQ0M-20" value="" style="ellipse;whiteSpace=wrap;html=1;aspect=fixed;strokeColor=#007FFF;fillColor=#3399FF;" vertex="1" parent="1">
          <mxGeometry x="270" y="470" width="80" height="80" as="geometry" />
        </mxCell>
        <mxCell id="8Eg1PZYVMVxL11ZSGQ0M-21" value="" style="ellipse;whiteSpace=wrap;html=1;aspect=fixed;strokeColor=#007FFF;fillColor=#3399FF;" vertex="1" parent="1">
          <mxGeometry x="180" y="420" width="80" height="80" as="geometry" />
        </mxCell>
        <mxCell id="8Eg1PZYVMVxL11ZSGQ0M-22" value="" style="ellipse;whiteSpace=wrap;html=1;aspect=fixed;strokeColor=#007FFF;fillColor=#3399FF;" vertex="1" parent="1">
          <mxGeometry x="120" y="330" width="80" height="80" as="geometry" />
        </mxCell>
        <mxCell id="8Eg1PZYVMVxL11ZSGQ0M-23" value="" style="ellipse;whiteSpace=wrap;html=1;aspect=fixed;strokeColor=#007FFF;fillColor=#3399FF;" vertex="1" parent="1">
          <mxGeometry x="100" y="230" width="80" height="80" as="geometry" />
        </mxCell>
        <mxCell id="8Eg1PZYVMVxL11ZSGQ0M-24" value="" style="ellipse;whiteSpace=wrap;html=1;aspect=fixed;strokeColor=#007FFF;fillColor=#3399FF;" vertex="1" parent="1">
          <mxGeometry x="130" y="130" width="80" height="80" as="geometry" />
        </mxCell>
        <mxCell id="8Eg1PZYVMVxL11ZSGQ0M-25" value="" style="ellipse;whiteSpace=wrap;html=1;aspect=fixed;strokeColor=#007FFF;fillColor=#3399FF;" vertex="1" parent="1">
          <mxGeometry x="200" y="60" width="80" height="80" as="geometry" />
        </mxCell>
        <mxCell id="8Eg1PZYVMVxL11ZSGQ0M-26" value="" style="ellipse;whiteSpace=wrap;html=1;aspect=fixed;strokeColor=#007FFF;fillColor=#3399FF;" vertex="1" parent="1">
          <mxGeometry x="294" y="20" width="80" height="80" as="geometry" />
        </mxCell>
        <mxCell id="8Eg1PZYVMVxL11ZSGQ0M-27" value="" style="ellipse;whiteSpace=wrap;html=1;aspect=fixed;strokeColor=#007FFF;fillColor=#3399FF;" vertex="1" parent="1">
          <mxGeometry x="550" y="170" width="80" height="80" as="geometry" />
        </mxCell>
        <mxCell id="8Eg1PZYVMVxL11ZSGQ0M-28" value="" style="ellipse;whiteSpace=wrap;html=1;aspect=fixed;strokeColor=#007FFF;fillColor=#3399FF;" vertex="1" parent="1">
          <mxGeometry x="490" y="90" width="80" height="80" as="geometry" />
        </mxCell>
        <mxCell id="8Eg1PZYVMVxL11ZSGQ0M-32" value="" style="ellipse;whiteSpace=wrap;html=1;aspect=fixed;strokeColor=#007FFF;fillColor=#3399FF;" vertex="1" parent="1">
          <mxGeometry x="530" y="360" width="80" height="80" as="geometry" />
        </mxCell>
        <mxCell id="8Eg1PZYVMVxL11ZSGQ0M-33" value="" style="ellipse;whiteSpace=wrap;html=1;aspect=fixed;strokeColor=#007FFF;fillColor=#3399FF;" vertex="1" parent="1">
          <mxGeometry x="470" y="440" width="80" height="80" as="geometry" />
        </mxCell>
        <mxCell id="8Eg1PZYVMVxL11ZSGQ0M-34" value="" style="ellipse;whiteSpace=wrap;html=1;aspect=fixed;strokeColor=#007FFF;fillColor=#3399FF;" vertex="1" parent="1">
          <mxGeometry x="374" y="480" width="80" height="80" as="geometry" />
        </mxCell>
        <mxCell id="8Eg1PZYVMVxL11ZSGQ0M-35" value="" style="ellipse;whiteSpace=wrap;html=1;aspect=fixed;strokeColor=#007FFF;fillColor=#3399FF;" vertex="1" parent="1">
          <mxGeometry x="560" y="270" width="80" height="80" as="geometry" />
        </mxCell>
        <mxCell id="8Eg1PZYVMVxL11ZSGQ0M-36" value="" style="ellipse;whiteSpace=wrap;html=1;aspect=fixed;strokeColor=#007FFF;fillColor=#3399FF;" vertex="1" parent="1">
          <mxGeometry x="400" y="30" width="80" height="80" as="geometry" />
        </mxCell>
      </root>
    </mxGraphModel>
  </diagram>
</mxfile>
